HIERARCHY
ROOT Hips
{
    OFFSET   0.000000   0.000000   0.000000
    CHANNELS 6 Xposition Yposition Zposition Zrotation Xrotation Yrotation
    JOINT Chest
    {
        OFFSET   0.000000   8.007240   0.000000
        CHANNELS 3 Zrotation Xrotation Yrotation
        JOINT Chest2
        {
            OFFSET   0.000000  22.077100   0.000000
            CHANNELS 3 Zrotation Xrotation Yrotation
            JOINT Neck
            {
                OFFSET   0.000000  23.254800   0.000000
                CHANNELS 3 Zrotation Xrotation Yrotation
                JOINT Head
                {
                    OFFSET   0.000000  14.370000   1.956600
                    CHANNELS 3 Zrotation Xrotation Yrotation
                    End Site
                    {
                        OFFSET   0.000000  19.566000   0.000000
                    }
                }
            }
            JOINT LeftCollar
            {
                OFFSET   3.911900  19.017000  -0.467064
                CHANNELS 3 Zrotation Xrotation Yrotation
                JOINT LeftShoulder
                {
                    OFFSET  10.383700   0.000000   0.000000
                    CHANNELS 3 Zrotation Xrotation Yrotation
                    JOINT LeftElbow
                    {
                        OFFSET  26.662100   0.001476   0.000517
                        CHANNELS 3 Zrotation Xrotation Yrotation
                        JOINT LeftWrist
                        {
                            OFFSET  28.869000  -0.000025  -0.000106
                            CHANNELS 3 Zrotation Xrotation Yrotation
                            JOINT LeftFinger0
                            {
                                OFFSET   2.044660  -2.323460   3.252850
                                CHANNELS 3 Zrotation Xrotation Yrotation
                                JOINT LeftFinger01
                                {
                                    OFFSET   3.088130   0.000000   0.000000
                                    CHANNELS 3 Zrotation Xrotation Yrotation
                                    JOINT LeftFinger02
                                    {
                                        OFFSET   2.639460   0.000000   0.000000
                                        CHANNELS 3 Zrotation Xrotation Yrotation
                                        End Site
                                        {
                                            OFFSET   2.582190   0.000000   0.000000
                                        }
                                    }
                                }
                            }
                            JOINT LeftFinger1
                            {
                                OFFSET   8.364480   0.000000   3.252850
                                CHANNELS 3 Zrotation Xrotation Yrotation
                                JOINT LeftFinger11
                                {
                                    OFFSET   4.646930   0.000000   0.000000
                                    CHANNELS 3 Zrotation Xrotation Yrotation
                                    JOINT LeftFinger12
                                    {
                                        OFFSET   2.323460   0.000000   0.000000
                                        CHANNELS 3 Zrotation Xrotation Yrotation
                                        End Site
                                        {
                                            OFFSET   2.273050   0.000000   0.000000
                                        }
                                    }
                                }
                            }
                            JOINT LeftFinger2
                            {
                                OFFSET   8.364490   0.000015   1.078090
                                CHANNELS 3 Zrotation Xrotation Yrotation
                                JOINT LeftFinger21
                                {
                                    OFFSET   5.111620   0.000000   0.000000
                                    CHANNELS 3 Zrotation Xrotation Yrotation
                                    JOINT LeftFinger22
                                    {
                                        OFFSET   2.788160   0.000016   0.000000
                                        CHANNELS 3 Zrotation Xrotation Yrotation
                                        End Site
                                        {
                                            OFFSET   2.727660   0.000000   0.000000
                                        }
                                    }
                                }
                            }
                            JOINT LeftFinger3
                            {
                                OFFSET   7.899780   0.000017  -1.078090
                                CHANNELS 3 Zrotation Xrotation Yrotation
                                JOINT LeftFinger31
                                {
                                    OFFSET   4.646930   0.000000   0.000000
                                    CHANNELS 3 Zrotation Xrotation Yrotation
                                    JOINT LeftFinger32
                                    {
                                        OFFSET   2.323470   0.000000   0.000000
                                        CHANNELS 3 Zrotation Xrotation Yrotation
                                        End Site
                                        {
                                            OFFSET   2.273050   0.000000   0.000000
                                        }
                                    }
                                }
                            }
                            JOINT LeftFinger4
                            {
                                OFFSET   7.435090   0.000000  -3.252850
                                CHANNELS 3 Zrotation Xrotation Yrotation
                                JOINT LeftFinger41
                                {
                                    OFFSET   3.717550   0.000000   0.000000
                                    CHANNELS 3 Zrotation Xrotation Yrotation
                                    JOINT LeftFinger42
                                    {
                                        OFFSET   1.858770   0.000000   0.000000
                                        CHANNELS 3 Zrotation Xrotation Yrotation
                                        End Site
                                        {
                                            OFFSET   1.818440   0.000000   0.000000
                                        }
                                    }
                                }
                            }
                        }
                    }
                }
            }
            JOINT RightCollar
            {
                OFFSET  -3.911900  19.017000  -0.467063
                CHANNELS 3 Zrotation Xrotation Yrotation
                JOINT RightShoulder
                {
                    OFFSET -10.383700   0.000019   0.000000
                    CHANNELS 3 Zrotation Xrotation Yrotation
                    JOINT RightElbow
                    {
                        OFFSET -26.662100   0.001175   0.000102
                        CHANNELS 3 Zrotation Xrotation Yrotation
                        JOINT RightWrist
                        {
                            OFFSET -28.869000   0.000016  -0.000079
                            CHANNELS 3 Zrotation Xrotation Yrotation
                            JOINT RightFinger0
                            {
                                OFFSET  -2.044660  -2.323490   3.252850
                                CHANNELS 3 Zrotation Xrotation Yrotation
                                JOINT RightFinger01
                                {
                                    OFFSET  -3.088140   0.000000   0.000000
                                    CHANNELS 3 Zrotation Xrotation Yrotation
                                    JOINT RightFinger02
                                    {
                                        OFFSET  -2.639460   0.000000   0.000000
                                        CHANNELS 3 Zrotation Xrotation Yrotation
                                        End Site
                                        {
                                            OFFSET  -2.582190   0.000000   0.000000
                                        }
                                    }
                                }
                            }
                            JOINT RightFinger1
                            {
                                OFFSET  -8.364480   0.000000   3.252850
                                CHANNELS 3 Zrotation Xrotation Yrotation
                                JOINT RightFinger11
                                {
                                    OFFSET  -4.646930   0.000000   0.000000
                                    CHANNELS 3 Zrotation Xrotation Yrotation
                                    JOINT RightFinger12
                                    {
                                        OFFSET  -2.323470   0.000000   0.000000
                                        CHANNELS 3 Zrotation Xrotation Yrotation
                                        End Site
                                        {
                                            OFFSET  -2.273050   0.000000   0.000000
                                        }
                                    }
                                }
                            }
                            JOINT RightFinger2
                            {
                                OFFSET  -8.364480   0.000000   1.078090
                                CHANNELS 3 Zrotation Xrotation Yrotation
                                JOINT RightFinger21
                                {
                                    OFFSET  -5.111620   0.000000   0.000000
                                    CHANNELS 3 Zrotation Xrotation Yrotation
                                    JOINT RightFinger22
                                    {
                                        OFFSET  -2.788160   0.000000   0.000000
                                        CHANNELS 3 Zrotation Xrotation Yrotation
                                        End Site
                                        {
                                            OFFSET  -2.727660   0.000000   0.000000
                                        }
                                    }
                                }
                            }
                            JOINT RightFinger3
                            {
                                OFFSET  -7.899780   0.000000  -1.078090
                                CHANNELS 3 Zrotation Xrotation Yrotation
                                JOINT RightFinger31
                                {
                                    OFFSET  -4.646930   0.000000   0.000000
                                    CHANNELS 3 Zrotation Xrotation Yrotation
                                    JOINT RightFinger32
                                    {
                                        OFFSET  -2.323470   0.000000   0.000000
                                        CHANNELS 3 Zrotation Xrotation Yrotation
                                        End Site
                                        {
                                            OFFSET  -2.273050   0.000000   0.000000
                                        }
                                    }
                                }
                            }
                            JOINT RightFinger4
                            {
                                OFFSET  -7.435090   0.000000  -3.252850
                                CHANNELS 3 Zrotation Xrotation Yrotation
                                JOINT RightFinger41
                                {
                                    OFFSET  -3.717550   0.000000   0.000000
                                    CHANNELS 3 Zrotation Xrotation Yrotation
                                    JOINT RightFinger42
                                    {
                                        OFFSET  -1.858770   0.000000   0.000000
                                        CHANNELS 3 Zrotation Xrotation Yrotation
                                        End Site
                                        {
                                            OFFSET  -1.818440   0.000000   0.000000
                                        }
                                    }
                                }
                            }
                        }
                    }
                }
            }
        }
    }
    JOINT LeftHip
    {
        OFFSET   9.783040   0.000000   0.000000
        CHANNELS 3 Zrotation Xrotation Yrotation
        JOINT LeftKnee
        {
            OFFSET   0.000032 -41.789100  -0.002222
            CHANNELS 3 Zrotation Xrotation Yrotation
            JOINT LeftAnkle
            {
                OFFSET   0.000087 -41.133200  -0.000135
                CHANNELS 3 Zrotation Xrotation Yrotation
                JOINT LeftToe
                {
                    OFFSET   0.000000  -6.358960  14.674500
                    CHANNELS 3 Zrotation Xrotation Yrotation
                    End Site
                    {
                        OFFSET   0.000000   0.000000   3.913200
                    }
                }
            }
        }
    }
    JOINT RightHip
    {
        OFFSET  -9.783040   0.000000   0.000000
        CHANNELS 3 Zrotation Xrotation Yrotation
        JOINT RightKnee
        {
            OFFSET   0.000047 -41.789100  -0.000896
            CHANNELS 3 Zrotation Xrotation Yrotation
            JOINT RightAnkle
            {
                OFFSET  -0.000117 -41.133300  -0.000248
                CHANNELS 3 Zrotation Xrotation Yrotation
                JOINT RightToe
                {
                    OFFSET   0.000000  -6.358970  14.674500
                    CHANNELS 3 Zrotation Xrotation Yrotation
                    End Site
                    {
                        OFFSET   0.000000   0.000000   3.913200
                    }
                }
            }
        }
    }
}
MOTION
Frames: 4
Frame Time:   0.016667
 -3.484900  89.496600  -3.615310  -2.368150  -3.514190   3.126630   1.349980   2.035730  -0.995773   2.737750   4.047100  -2.041220   1.228380  -0.168487   0.009434   2.018270  -0.342365   2.512640  -3.102370   3.247490   0.268659 -73.954500  17.627300  -6.266360  -1.522140  -4.284840  -8.299300   7.104860  -7.225760   8.727660  44.867400  33.191600 -71.579600 -16.994000  -0.000895   0.004406  -3.496980  -0.002181   0.005230 -32.560700   5.728660  -8.889650 -27.004000  -0.005263   0.011891 -18.910700  -0.004471  -0.013523 -28.288800   2.971920  -5.501450 -35.519500  -0.003599  -0.008007 -23.656000  -0.002405  -0.004895 -28.448200   0.734117  -1.369510 -35.732500  -0.006456   0.008209 -23.797900  -0.005903   0.000685 -33.588900   0.560296  -0.830553 -50.389500  -0.007591   0.001753 -33.559300  -0.004405  -0.003951   2.401730  -0.736821   8.288870  76.242400  10.445200   3.188270   1.000660  -2.193440   5.045700 -10.651200  -9.437870   2.672800 -37.180600  31.936900  65.368600  32.775700  -0.002215  -0.000347  11.387800  -0.002247  -0.001452  31.534100   5.683200   9.167100  26.174800   0.003114   0.006804  18.322400   0.001206   0.004409  28.091000   4.458160   8.285310  35.261100   0.001988   0.001626  23.483900   0.003018   0.006272  28.377800   2.996880   5.527510  36.423400   0.006762   0.002093  24.258000   0.001862   0.002310  34.030900   0.443424   0.679290  51.050000   0.004234   0.008076  33.999300   0.005043   0.001489   3.365910   5.938420   2.018540   1.263400   0.186555  10.143900  -2.590820  -1.750360   2.251360  -0.000000   0.000000  -0.000000   3.309270  -1.353770  -2.751550   0.535320   7.353320 -11.747500  -3.843650  -2.469790  -6.512100   0.000000   0.000000   0.000000
 -3.505330  89.496600  -3.615010  -2.365550  -3.547150   3.139590   1.349820   2.051190  -1.000800   2.737700   4.077880  -2.051660   1.241950  -0.170473   0.009387   2.040480  -0.345861   2.496120  -3.102720   3.241690   0.268646 -73.964900  17.649000  -6.269430  -1.524280  -4.293050  -8.311720   7.095710  -7.224190   8.711350  44.878100  33.210600 -71.603500 -17.006700  -0.000896   0.004410  -3.503360  -0.002178   0.005223 -32.563100   5.728590  -8.889650 -27.006400  -0.005262   0.011893 -18.909300  -0.004470  -0.013523 -28.288800   2.972090  -5.501780 -35.522400  -0.003595  -0.008008 -23.657900  -0.002404  -0.004894 -28.448300   0.734242  -1.359660 -35.733200  -0.006456   0.008207 -23.798300  -0.005902   0.000685 -33.590000   0.560225  -0.831721 -50.391300  -0.007590   0.001754 -33.560500  -0.004405  -0.003949   2.408890  -0.791833   8.299430  76.262900  10.665900   3.199180   0.968242  -2.021100   5.079540 -10.665100  -9.405590   2.609720 -37.192300  31.939400  65.477500  32.711600  -0.002216  -0.000344  11.355800  -0.002253  -0.001466  31.547500   5.734180   9.242630  26.192700   0.003111   0.006810  18.334900   0.001203   0.004413  28.088900   4.496840   8.356590  35.301800   0.001992   0.001528  23.511000   0.003024   0.006278  28.377300   3.048800   5.622570  36.480300   0.006761   0.001990  24.295900   0.001865   0.002317  34.059900   0.443425   0.669059  51.093600   0.004245   0.008066  34.028300   0.005048   0.001497   3.382940   5.993650   2.030960   1.261130   0.137230  10.153300  -2.594220  -1.720620   2.214890   0.000000   0.000000   0.000000   3.323790  -1.324800  -2.744570   0.543720   7.357370 -11.774100  -3.855140  -2.474220  -6.504710   0.000000   0.000000   0.000000
 -3.539820  89.496600  -3.614720  -2.361280  -3.610020   3.152650   1.350050   2.084190  -1.008230   2.739300   4.143680  -2.067390   1.266290  -0.178685   0.009331   2.080380  -0.361827   2.463100  -3.105330   3.233220   0.268565 -73.970800  17.697000  -6.287320  -1.528710  -4.311910  -8.333090   7.083160  -7.213620   8.686610  44.902800  33.244900 -71.642200 -17.026400  -0.000897   0.004413  -3.513220  -0.002172   0.005217 -32.565500   5.728440  -8.889650 -27.008900  -0.005260   0.011896 -18.906200  -0.004467  -0.013522 -28.288700   2.972340  -5.502250 -35.525200  -0.003588  -0.008012 -23.659800  -0.002400  -0.004893 -28.448500   0.734448  -1.349820 -35.733800  -0.006454   0.008202 -23.798700  -0.005898   0.000686 -33.591100   0.560074  -0.834605 -50.393000  -0.007587   0.001758 -33.561700  -0.004403  -0.003943   2.422830  -0.891563   8.324490  76.293400  11.014700   3.211540   0.893260  -1.641780   5.256770 -10.696900  -9.355280   2.518230 -37.274900  32.006000  65.675000  32.555200  -0.002217  -0.000340  11.277600  -0.002259  -0.001483  31.562800   5.841120   9.405810  26.219700   0.003108   0.006825  18.353800   0.001199   0.004422  28.082100   4.574700   8.501190  35.351200   0.002003   0.001346  23.543900   0.003038   0.006293  28.373800   3.144930   5.799340  36.559100   0.006760   0.001799  24.348400   0.001877   0.002331  34.099400   0.443427   0.655102  51.152800   0.004269   0.008048  34.067700   0.005062   0.001514   3.412310   6.089310   2.054240   1.256620   0.064754  10.166500  -2.601100  -1.676550   2.160240   0.000000   0.000000   0.000000   3.347700  -1.270330  -2.732630   0.557777   7.365800 -11.818700  -3.875410  -2.480800  -6.487330  -0.000000   0.000000   0.000000
 -3.568660  89.496600  -3.616360  -2.360790  -3.675290   3.150390   1.352110   2.124900  -1.012180   2.744600   4.224950  -2.076430   1.290320  -0.195682   0.009321   2.119850  -0.396263   2.423640  -3.112380   3.229760   0.264934 -73.953200  17.763700  -6.332070  -1.539750  -4.343430  -8.351800   7.075830  -7.185020   8.671920  44.940600  33.280000 -71.672200 -17.037100  -0.000895   0.004404  -3.518570  -0.002169   0.005222 -32.557500   5.728180  -8.893110 -27.002300  -0.005255   0.011899 -18.900700  -0.004461  -0.013520 -28.288700   2.972440  -5.502440 -35.503500  -0.003581  -0.008019 -23.645400  -0.002395  -0.004892 -28.448600   0.734650  -1.353350 -35.711200  -0.006451   0.008199 -23.783700  -0.005891   0.000685 -33.579000   0.559867  -0.840304 -50.374800  -0.007581   0.001765 -33.549600  -0.004400  -0.003938   2.456470  -0.994251   8.361830  76.328000  11.247400   3.149150   0.789767  -1.152700   5.626850 -10.755800  -9.338790   2.467790 -37.477600  32.160900  65.853400  32.323800  -0.002215  -0.000341  11.161900  -0.002252  -0.001485  31.555500   5.970020   9.612410  26.231700   0.003111   0.006846  18.362200   0.001198   0.004433  28.069600   4.662060   8.665570  35.361400   0.002018   0.001103  23.550600   0.003056   0.006318  28.365800   3.237500   5.971090  36.584300   0.006760   0.001551  24.365200   0.001899   0.002346  34.112100   0.444632   0.650435  51.171900   0.004301   0.008026  34.080500   0.005085   0.001538   3.437710   6.177330   2.079570   1.249840   0.021460  10.170500  -2.607980  -1.648930   2.125860   0.000000   0.000000  -0.000000   3.365740  -1.214730  -2.723600   0.570247   7.374710 -11.858300  -3.895050  -2.483820  -6.460470  -0.000000   0.000000   0.000000
